<svg id="svg" version="1.1" xmlns="http://www.w3.org/2000/svg" xmlns:xlink="http://www.w3.org/1999/xlink" viewBox="0, 0, 400,400"><g id="svgg"><path id="path0" d="M46.200 20.221 C 27.325 23.043,15.181 32.717,10.861 48.372 L 9.805 52.200 9.703 107.600 C 9.647 138.070,9.754 187.570,9.940 217.600 L 10.278 272.200 11.309 275.800 C 16.163 292.748,28.562 304.562,45.631 308.505 C 49.380 309.371,49.667 309.376,100.100 309.496 L 150.800 309.618 150.800 298.426 L 150.800 287.235 101.100 287.117 L 51.400 287.000 48.800 286.066 C 39.844 282.848,33.990 276.314,32.794 268.200 C 31.984 262.709,32.462 53.705,33.288 51.880 C 35.256 47.531,41.217 43.817,47.863 42.800 C 49.726 42.515,98.258 42.352,199.800 42.290 L 349.000 42.200 351.817 43.086 C 357.413 44.847,362.055 48.871,364.586 54.157 C 367.179 59.571,367.000 51.349,367.000 164.800 L 367.000 268.600 366.117 271.400 C 363.805 278.729,358.634 283.874,350.993 286.448 C 349.691 286.886,336.938 287.005,281.150 287.101 L 212.900 287.218 201.572 299.509 C 195.341 306.269,189.964 312.093,189.622 312.452 C 186.149 316.095,182.606 319.919,170.585 333.000 C 146.333 359.391,132.361 374.512,129.690 377.258 C 128.268 378.720,127.172 380.075,127.253 380.270 C 127.755 381.480,143.357 395.295,143.850 394.967 C 144.153 394.765,152.636 385.680,162.701 374.779 C 183.410 352.347,207.418 326.342,214.565 318.600 C 217.205 315.740,220.093 312.636,220.982 311.703 L 222.600 310.007 287.200 309.656 C 358.595 309.268,353.808 309.459,361.000 306.702 C 374.844 301.395,385.032 289.739,388.473 275.270 C 390.096 268.446,390.625 64.813,389.041 56.800 C 385.420 38.490,373.738 25.745,356.118 20.881 L 352.200 19.800 201.000 19.741 C 76.138 19.693,49.173 19.777,46.200 20.221 M207.000 104.411 C 175.245 109.659,147.616 127.108,130.515 152.716 C 116.789 173.270,112.184 200.902,120.036 215.600 C 129.038 232.452,156.190 236.315,172.463 223.059 C 185.453 212.478,189.783 189.090,180.935 177.300 L 179.959 176.000 168.567 176.000 C 155.396 176.000,156.473 176.471,157.565 171.188 C 162.468 147.483,181.921 129.350,205.849 126.182 C 206.976 126.033,208.090 125.792,208.325 125.646 C 208.560 125.501,209.661 120.796,210.771 115.191 C 211.881 109.586,212.865 104.685,212.957 104.300 C 213.164 103.440,212.845 103.445,207.000 104.411 M302.400 104.402 C 262.044 110.643,226.010 140.414,215.825 175.931 C 206.557 208.249,217.215 229.948,242.733 230.715 C 256.516 231.129,265.805 227.270,273.593 217.897 C 282.992 206.584,284.681 186.402,276.994 177.266 L 275.939 176.012 264.670 175.906 L 253.400 175.800 253.502 173.800 C 253.558 172.700,254.149 169.836,254.816 167.436 C 261.082 144.886,276.957 131.074,302.416 126.018 L 304.632 125.578 306.529 115.089 C 307.572 109.320,308.420 104.375,308.413 104.100 C 308.397 103.495,308.199 103.505,302.400 104.402 " stroke="none" fill="#060606" fill-rule="evenodd"></path><path id="path1" d="M0.000 207.600 L 0.000 415.200 200.000 415.200 L 400.000 415.200 400.000 207.600 L 400.000 0.000 200.000 0.000 L 0.000 0.000 0.000 207.600 M350.600 19.384 C 368.941 21.707,384.104 34.954,388.621 52.600 C 390.375 59.455,390.475 66.631,390.279 172.400 C 390.082 279.249,390.249 272.128,387.760 279.568 C 382.437 295.474,367.471 307.857,351.462 309.600 C 349.231 309.843,323.420 310.038,285.400 310.100 L 223.000 310.200 220.965 312.400 C 219.846 313.610,211.216 322.970,201.788 333.200 C 192.359 343.430,182.131 354.500,179.059 357.800 C 173.007 364.300,172.657 364.678,164.998 373.000 C 154.010 384.939,151.304 387.871,148.590 390.784 C 147.045 392.443,145.296 394.332,144.703 394.982 L 143.626 396.164 142.713 395.353 C 136.420 389.760,126.800 380.620,126.800 380.234 C 126.800 379.823,141.882 363.277,162.198 341.400 C 164.445 338.980,167.255 335.933,168.442 334.628 C 169.629 333.323,171.050 331.780,171.600 331.198 C 172.150 330.616,174.310 328.271,176.400 325.987 C 178.490 323.702,180.740 321.274,181.400 320.589 C 182.586 319.360,189.127 312.274,191.153 310.024 C 191.729 309.385,196.786 303.898,202.391 297.831 L 212.581 286.800 257.791 286.774 C 334.196 286.730,347.779 286.590,350.800 285.812 C 357.883 283.989,364.006 277.856,365.849 270.737 C 367.446 264.567,366.999 61.497,365.378 57.000 C 362.796 49.836,356.789 44.572,349.400 42.998 C 346.132 42.302,64.525 42.118,53.598 42.805 C 41.950 43.537,35.791 46.670,33.568 52.995 C 32.805 55.164,32.793 57.152,32.896 161.702 L 33.000 268.200 33.915 270.896 C 35.874 276.669,39.673 281.139,45.000 283.940 C 49.788 286.458,48.110 286.385,101.851 286.393 C 140.439 286.399,150.788 286.505,151.113 286.900 C 151.428 287.283,151.538 307.333,151.238 309.700 C 151.157 310.337,51.599 310.051,47.884 309.403 C 28.734 306.064,13.631 291.515,10.216 273.116 C 9.496 269.237,8.968 59.087,9.663 53.000 C 11.572 36.274,23.121 24.677,42.200 20.328 L 46.200 19.416 179.800 19.208 C 335.375 18.966,347.396 18.978,350.600 19.384 M213.600 103.463 C 213.600 103.914,209.126 125.793,209.008 125.919 C 208.946 125.984,206.939 126.458,204.548 126.972 C 178.354 132.600,159.815 151.197,157.515 174.151 L 157.400 175.302 168.753 175.414 C 181.734 175.543,180.552 175.195,182.949 179.601 C 189.294 191.261,185.649 210.713,175.152 221.210 C 159.844 236.517,130.795 234.405,120.417 217.229 C 109.896 199.815,117.103 166.965,136.526 143.800 C 152.887 124.286,178.242 108.965,200.400 105.203 C 201.830 104.960,203.549 104.588,204.219 104.376 C 206.810 103.558,213.600 102.897,213.600 103.463 M308.970 104.700 C 308.824 105.525,308.006 109.946,307.152 114.524 C 306.298 119.102,305.597 123.152,305.594 123.524 C 305.577 125.500,304.723 126.098,300.800 126.880 C 278.176 131.394,262.037 145.316,255.826 165.677 C 254.765 169.157,253.538 174.871,253.797 175.130 C 253.874 175.207,258.946 175.336,265.068 175.416 L 276.200 175.562 277.347 176.881 C 284.972 185.644,283.719 204.963,274.730 217.258 C 261.065 235.948,229.809 236.417,217.312 218.118 C 207.522 203.782,211.656 174.408,226.631 151.912 C 241.802 129.120,270.728 109.347,294.682 105.392 C 295.517 105.255,297.820 104.797,299.800 104.377 C 303.825 103.521,305.030 103.347,307.518 103.260 L 309.236 103.200 308.970 104.700 " stroke="none" fill="#f3f3f3" fill-rule="evenodd"></path><path id="path2" d="M326.316 19.097 C 327.699 19.175,329.859 19.174,331.116 19.095 C 332.372 19.016,331.240 18.952,328.600 18.953 C 325.960 18.953,324.932 19.018,326.316 19.097 M343.500 19.082 C 343.995 19.178,344.805 19.178,345.300 19.082 C 345.795 18.987,345.390 18.909,344.400 18.909 C 343.410 18.909,343.005 18.987,343.500 19.082 M65.500 19.500 C 75.015 19.560,90.585 19.560,100.100 19.500 C 109.615 19.440,101.830 19.391,82.800 19.391 C 63.770 19.391,55.985 19.440,65.500 19.500 M348.500 19.476 C 348.885 19.576,349.515 19.576,349.900 19.476 C 350.285 19.375,349.970 19.293,349.200 19.293 C 348.430 19.293,348.115 19.375,348.500 19.476 M364.033 23.349 C 364.445 23.717,366.800 24.800,366.800 24.621 C 366.800 24.390,364.582 23.200,364.153 23.200 C 363.996 23.200,363.942 23.267,364.033 23.349 M19.600 31.800 C 18.628 32.790,17.923 33.600,18.033 33.600 C 18.143 33.600,19.028 32.790,20.000 31.800 C 20.972 30.810,21.677 30.000,21.567 30.000 C 21.457 30.000,20.572 30.810,19.600 31.800 M52.711 42.693 C 53.651 42.778,55.091 42.777,55.911 42.691 C 56.730 42.605,55.960 42.536,54.200 42.537 C 52.440 42.539,51.770 42.609,52.711 42.693 M69.116 42.697 C 70.499 42.775,72.659 42.774,73.916 42.695 C 75.172 42.616,74.040 42.552,71.400 42.553 C 68.760 42.553,67.732 42.618,69.116 42.697 M360.200 48.800 C 361.283 49.900,362.260 50.800,362.370 50.800 C 362.480 50.800,361.683 49.900,360.600 48.800 C 359.517 47.700,358.540 46.800,358.430 46.800 C 358.320 46.800,359.117 47.700,360.200 48.800 M387.656 50.000 C 387.656 50.330,387.811 50.960,388.000 51.400 C 388.217 51.904,388.344 51.978,388.344 51.600 C 388.344 51.270,388.189 50.640,388.000 50.200 C 387.783 49.696,387.656 49.622,387.656 50.000 M32.594 104.400 C 32.594 130.910,32.641 141.755,32.700 128.500 C 32.758 115.245,32.758 93.555,32.700 80.300 C 32.641 67.045,32.594 77.890,32.594 104.400 M389.701 60.600 C 389.705 61.480,389.787 61.793,389.883 61.295 C 389.979 60.798,389.975 60.078,389.875 59.695 C 389.775 59.313,389.696 59.720,389.701 60.600 M366.573 71.200 C 366.573 76.590,366.630 78.795,366.699 76.100 C 366.768 73.405,366.768 68.995,366.699 66.300 C 366.630 63.605,366.573 65.810,366.573 71.200 M9.355 71.400 C 9.356 74.260,9.420 75.378,9.497 73.883 C 9.574 72.389,9.574 70.049,9.496 68.683 C 9.418 67.318,9.355 68.540,9.355 71.400 M390.196 150.800 C 390.196 195.570,390.243 213.885,390.300 191.500 C 390.357 169.115,390.357 132.485,390.300 110.100 C 390.243 87.715,390.196 106.030,390.196 150.800 M366.988 106.800 C 366.988 120.770,367.039 126.485,367.100 119.500 C 367.161 112.515,367.161 101.085,367.100 94.100 C 367.039 87.115,366.988 92.830,366.988 106.800 M9.354 90.400 C 9.354 93.150,9.418 94.275,9.496 92.900 C 9.574 91.525,9.574 89.275,9.496 87.900 C 9.418 86.525,9.354 87.650,9.354 90.400 M205.800 104.000 C 204.730 104.272,204.708 104.305,205.600 104.305 C 206.150 104.305,207.140 104.168,207.800 104.000 C 208.870 103.728,208.892 103.695,208.000 103.695 C 207.450 103.695,206.460 103.832,205.800 104.000 M9.354 109.600 C 9.354 112.350,9.418 113.475,9.496 112.100 C 9.574 110.725,9.574 108.475,9.496 107.100 C 9.418 105.725,9.354 106.850,9.354 109.600 M289.000 106.800 C 288.496 107.017,288.422 107.144,288.800 107.144 C 289.130 107.144,289.760 106.989,290.200 106.800 C 290.704 106.583,290.778 106.456,290.400 106.456 C 290.070 106.456,289.440 106.611,289.000 106.800 M274.800 111.800 C 274.250 112.114,273.980 112.372,274.200 112.372 C 274.420 112.372,275.050 112.114,275.600 111.800 C 276.150 111.486,276.420 111.228,276.200 111.228 C 275.980 111.228,275.350 111.486,274.800 111.800 M174.700 113.829 C 173.149 114.670,173.325 114.961,174.900 114.159 C 176.408 113.393,176.675 113.194,176.167 113.216 C 175.965 113.225,175.305 113.501,174.700 113.829 M169.900 116.229 C 168.405 117.040,168.496 117.378,170.000 116.600 C 170.660 116.259,171.200 115.894,171.200 115.790 C 171.200 115.532,171.157 115.547,169.900 116.229 M9.353 128.600 C 9.353 131.240,9.418 132.268,9.497 130.884 C 9.575 129.501,9.574 127.341,9.495 126.084 C 9.416 124.828,9.352 125.960,9.353 128.600 M153.985 126.829 L 152.600 128.058 154.100 126.981 C 155.426 126.030,155.857 125.600,155.485 125.600 C 155.422 125.600,154.747 126.153,153.985 126.829 M243.781 132.100 L 242.200 133.800 243.900 132.219 C 245.481 130.748,245.784 130.400,245.481 130.400 C 245.416 130.400,244.651 131.165,243.781 132.100 M147.200 132.600 C 146.228 133.590,145.523 134.400,145.633 134.400 C 145.743 134.400,146.628 133.590,147.600 132.600 C 148.572 131.610,149.277 130.800,149.167 130.800 C 149.057 130.800,148.172 131.610,147.200 132.600 M281.500 133.429 C 280.005 134.240,280.096 134.578,281.600 133.800 C 282.260 133.459,282.800 133.094,282.800 132.990 C 282.800 132.732,282.757 132.747,281.500 133.429 M366.954 138.000 C 366.954 140.750,367.018 141.875,367.096 140.500 C 367.174 139.125,367.174 136.875,367.096 135.500 C 367.018 134.125,366.954 135.250,366.954 138.000 M140.185 139.700 L 138.200 141.800 140.300 139.815 C 141.455 138.723,142.400 137.778,142.400 137.715 C 142.400 137.417,142.029 137.749,140.185 139.700 M236.400 139.400 C 235.428 140.390,234.723 141.200,234.833 141.200 C 234.943 141.200,235.828 140.390,236.800 139.400 C 237.772 138.410,238.477 137.600,238.367 137.600 C 238.257 137.600,237.372 138.410,236.400 139.400 M268.987 142.900 L 266.600 145.400 269.100 143.013 C 270.475 141.699,271.600 140.574,271.600 140.513 C 271.600 140.217,271.205 140.578,268.987 142.900 M233.375 142.900 L 232.200 144.200 233.500 143.025 C 234.215 142.379,234.800 141.794,234.800 141.725 C 234.800 141.416,234.470 141.688,233.375 142.900 M9.354 147.600 C 9.354 150.350,9.418 151.475,9.496 150.100 C 9.574 148.725,9.574 146.475,9.496 145.100 C 9.418 143.725,9.354 144.850,9.354 147.600 M258.475 157.819 C 257.270 160.300,257.405 160.647,258.646 158.261 C 259.201 157.194,259.587 156.253,259.503 156.170 C 259.419 156.086,258.957 156.828,258.475 157.819 M125.800 159.200 C 125.459 159.860,125.269 160.400,125.379 160.400 C 125.489 160.400,125.859 159.860,126.200 159.200 C 126.541 158.540,126.731 158.000,126.621 158.000 C 126.511 158.000,126.141 158.540,125.800 159.200 M220.981 161.237 C 220.629 161.918,220.412 162.545,220.499 162.632 C 220.586 162.719,220.956 162.162,221.322 161.395 C 222.144 159.670,221.859 159.538,220.981 161.237 M9.353 166.600 C 9.353 169.240,9.418 170.268,9.497 168.884 C 9.575 167.501,9.574 165.341,9.495 164.084 C 9.416 162.828,9.352 163.960,9.353 166.600 M121.665 167.817 C 120.995 169.288,121.123 169.602,121.847 168.265 C 122.186 167.640,122.388 167.054,122.296 166.963 C 122.205 166.871,121.921 167.256,121.665 167.817 M164.117 175.497 C 165.611 175.574,167.951 175.574,169.317 175.496 C 170.682 175.418,169.460 175.355,166.600 175.355 C 163.740 175.356,162.622 175.420,164.117 175.497 M259.317 175.497 C 260.811 175.574,263.151 175.574,264.517 175.496 C 265.882 175.418,264.660 175.355,261.800 175.355 C 258.940 175.356,257.822 175.420,259.317 175.497 M9.320 183.600 C 9.320 184.810,9.395 185.305,9.487 184.700 C 9.578 184.095,9.578 183.105,9.487 182.500 C 9.395 181.895,9.320 182.390,9.320 183.600 M116.493 187.600 C 116.493 188.370,116.575 188.685,116.676 188.300 C 116.776 187.915,116.776 187.285,116.676 186.900 C 116.575 186.515,116.493 186.830,116.493 187.600 M185.701 189.800 C 185.705 190.680,185.787 190.993,185.883 190.495 C 185.979 189.998,185.975 189.278,185.875 188.895 C 185.775 188.513,185.696 188.920,185.701 189.800 M212.493 190.400 C 212.493 191.170,212.575 191.485,212.676 191.100 C 212.776 190.715,212.776 190.085,212.676 189.700 C 212.575 189.315,212.493 189.630,212.493 190.400 M116.109 191.200 C 116.109 192.190,116.187 192.595,116.282 192.100 C 116.378 191.605,116.378 190.795,116.282 190.300 C 116.187 189.805,116.109 190.210,116.109 191.200 M282.146 193.400 C 282.147 195.600,282.214 196.449,282.295 195.287 C 282.376 194.124,282.376 192.324,282.293 191.287 C 282.211 190.249,282.145 191.200,282.146 193.400 M212.151 198.800 C 212.151 201.330,212.216 202.365,212.296 201.100 C 212.375 199.835,212.375 197.765,212.296 196.500 C 212.216 195.235,212.151 196.270,212.151 198.800 M115.748 198.800 C 115.748 201.110,115.814 202.055,115.895 200.900 C 115.976 199.745,115.976 197.855,115.895 196.700 C 115.814 195.545,115.748 196.490,115.748 198.800 M185.714 197.000 C 185.717 198.100,185.795 198.503,185.887 197.895 C 185.979 197.286,185.977 196.386,185.882 195.895 C 185.787 195.403,185.711 195.900,185.714 197.000 M278.278 211.005 C 277.912 211.772,277.695 212.400,277.796 212.400 C 278.070 212.400,279.284 209.951,279.101 209.768 C 279.014 209.681,278.644 210.238,278.278 211.005 M118.400 213.349 C 118.400 213.781,119.989 216.800,120.216 216.800 C 120.326 216.800,120.030 216.035,119.559 215.100 C 118.632 213.261,118.400 212.911,118.400 213.349 M121.514 219.000 C 121.741 219.440,122.438 220.249,123.063 220.799 L 124.200 221.797 123.003 220.399 C 121.107 218.182,121.080 218.158,121.514 219.000 M271.600 220.600 C 270.628 221.590,269.923 222.400,270.033 222.400 C 270.143 222.400,271.028 221.590,272.000 220.600 C 272.972 219.610,273.677 218.800,273.567 218.800 C 273.457 218.800,272.572 219.610,271.600 220.600 M124.400 222.125 C 124.400 222.194,124.985 222.779,125.700 223.425 L 127.000 224.600 125.825 223.300 C 124.730 222.088,124.400 221.816,124.400 222.125 M147.312 231.495 C 148.364 231.577,149.984 231.576,150.912 231.492 C 151.840 231.408,150.980 231.341,149.000 231.342 C 147.020 231.343,146.260 231.412,147.312 231.495 M242.313 231.495 C 243.476 231.576,245.276 231.576,246.313 231.493 C 247.351 231.411,246.400 231.345,244.200 231.346 C 242.000 231.347,241.151 231.414,242.313 231.495 M390.155 242.600 C 390.156 245.460,390.220 246.578,390.297 245.083 C 390.374 243.589,390.374 241.249,390.296 239.883 C 390.218 238.518,390.155 239.740,390.155 242.600 M366.555 243.000 C 366.556 245.860,366.620 246.978,366.697 245.483 C 366.774 243.989,366.774 241.649,366.696 240.283 C 366.618 238.918,366.555 240.140,366.555 243.000 M366.559 262.400 C 366.559 265.590,366.621 266.895,366.697 265.300 C 366.773 263.705,366.773 261.095,366.697 259.500 C 366.621 257.905,366.559 259.210,366.559 262.400 M390.144 260.800 C 390.144 262.890,390.212 263.745,390.294 262.700 C 390.376 261.655,390.376 259.945,390.294 258.900 C 390.212 257.855,390.144 258.710,390.144 260.800 M389.693 269.200 C 389.693 269.970,389.775 270.285,389.876 269.900 C 389.976 269.515,389.976 268.885,389.876 268.500 C 389.775 268.115,389.693 268.430,389.693 269.200 M9.693 269.600 C 9.693 270.370,9.775 270.685,9.876 270.300 C 9.976 269.915,9.976 269.285,9.876 268.900 C 9.775 268.515,9.693 268.830,9.693 269.600 M363.800 275.600 C 363.459 276.260,363.269 276.800,363.379 276.800 C 363.489 276.800,363.859 276.260,364.200 275.600 C 364.541 274.940,364.731 274.400,364.621 274.400 C 364.511 274.400,364.141 274.940,363.800 275.600 M37.600 278.525 C 37.600 278.594,38.185 279.179,38.900 279.825 L 40.200 281.000 39.025 279.700 C 37.930 278.488,37.600 278.216,37.600 278.525 M360.185 280.500 L 358.200 282.600 360.300 280.615 C 362.251 278.771,362.583 278.400,362.285 278.400 C 362.222 278.400,361.277 279.345,360.185 280.500 M43.600 283.384 C 43.600 283.494,44.320 283.951,45.200 284.400 C 46.080 284.849,46.800 285.126,46.800 285.016 C 46.800 284.906,46.080 284.449,45.200 284.000 C 44.320 283.551,43.600 283.274,43.600 283.384 M101.800 286.798 L 151.000 287.000 151.222 291.200 L 151.443 295.400 151.522 291.380 C 151.574 288.691,151.441 287.201,151.120 286.880 C 150.751 286.511,139.323 286.423,101.620 286.498 L 52.600 286.595 101.800 286.798 M316.700 286.696 C 318.075 286.774,320.325 286.774,321.700 286.696 C 323.075 286.618,321.950 286.554,319.200 286.554 C 316.450 286.554,315.325 286.618,316.700 286.696 M335.500 286.696 C 336.875 286.774,339.125 286.774,340.500 286.696 C 341.875 286.618,340.750 286.554,338.000 286.554 C 335.250 286.554,334.125 286.618,335.500 286.696 M345.900 286.682 C 346.395 286.778,347.205 286.778,347.700 286.682 C 348.195 286.587,347.790 286.509,346.800 286.509 C 345.810 286.509,345.405 286.587,345.900 286.682 M211.375 288.100 L 210.200 289.400 211.415 288.306 L 212.630 287.213 224.015 287.100 L 235.400 286.987 223.975 286.894 L 212.550 286.800 211.375 288.100 M206.985 292.900 L 205.000 295.000 207.100 293.015 C 208.255 291.923,209.200 290.978,209.200 290.915 C 209.200 290.617,208.829 290.949,206.985 292.900 M20.000 293.710 C 20.000 293.771,21.395 295.166,23.100 296.810 L 26.200 299.800 23.210 296.700 C 20.433 293.821,20.000 293.417,20.000 293.710 M202.181 298.100 L 200.600 299.800 202.300 298.219 C 203.881 296.748,204.184 296.400,203.881 296.400 C 203.816 296.400,203.051 297.165,202.181 298.100 M26.544 299.909 C 26.860 300.421,29.200 302.153,29.200 301.875 C 29.200 301.776,28.539 301.191,27.732 300.575 C 26.924 299.959,26.389 299.659,26.544 299.909 M197.600 303.000 C 196.628 303.990,195.923 304.800,196.033 304.800 C 196.143 304.800,197.028 303.990,198.000 303.000 C 198.972 302.010,199.677 301.200,199.567 301.200 C 199.457 301.200,198.572 302.010,197.600 303.000 M151.324 307.000 C 151.326 308.320,151.401 308.812,151.490 308.093 C 151.579 307.374,151.577 306.294,151.486 305.693 C 151.395 305.092,151.322 305.680,151.324 307.000 M192.800 308.200 C 191.828 309.190,191.123 310.000,191.233 310.000 C 191.343 310.000,192.228 309.190,193.200 308.200 C 194.172 307.210,194.877 306.400,194.767 306.400 C 194.657 306.400,193.772 307.210,192.800 308.200 M51.305 309.887 C 51.914 309.979,52.814 309.977,53.305 309.882 C 53.797 309.787,53.300 309.711,52.200 309.714 C 51.100 309.717,50.697 309.795,51.305 309.887 M348.100 309.876 C 348.485 309.976,349.115 309.976,349.500 309.876 C 349.885 309.775,349.570 309.693,348.800 309.693 C 348.030 309.693,347.715 309.775,348.100 309.876 M224.100 310.291 C 224.925 310.378,226.275 310.378,227.100 310.291 C 227.925 310.205,227.250 310.134,225.600 310.134 C 223.950 310.134,223.275 310.205,224.100 310.291 M240.716 310.297 C 242.099 310.375,244.259 310.374,245.516 310.295 C 246.772 310.216,245.640 310.152,243.000 310.153 C 240.360 310.153,239.332 310.218,240.716 310.297 M220.778 312.300 L 219.400 313.800 220.900 312.422 C 222.296 311.138,222.584 310.800,222.278 310.800 C 222.212 310.800,221.537 311.475,220.778 312.300 M188.181 313.300 L 186.600 315.000 188.300 313.419 C 189.881 311.948,190.184 311.600,189.881 311.600 C 189.816 311.600,189.051 312.365,188.181 313.300 M216.185 317.300 L 214.200 319.400 216.300 317.415 C 217.455 316.323,218.400 315.378,218.400 315.315 C 218.400 315.017,218.029 315.349,216.185 317.300 M183.375 318.500 L 182.200 319.800 183.500 318.625 C 184.712 317.530,184.984 317.200,184.675 317.200 C 184.606 317.200,184.021 317.785,183.375 318.500 M211.586 322.300 L 209.400 324.600 211.700 322.414 C 213.837 320.382,214.183 320.000,213.886 320.000 C 213.824 320.000,212.789 321.035,211.586 322.300 M178.778 323.500 L 177.400 325.000 178.900 323.622 C 180.296 322.338,180.584 322.000,180.278 322.000 C 180.212 322.000,179.537 322.675,178.778 323.500 M206.585 327.700 L 204.600 329.800 206.700 327.815 C 208.651 325.971,208.983 325.600,208.685 325.600 C 208.622 325.600,207.677 326.545,206.585 327.700 M173.781 328.900 L 172.200 330.600 173.900 329.019 C 175.481 327.548,175.784 327.200,175.481 327.200 C 175.416 327.200,174.651 327.965,173.781 328.900 M201.785 332.900 L 199.800 335.000 201.900 333.015 C 203.055 331.923,204.000 330.978,204.000 330.915 C 204.000 330.617,203.629 330.949,201.785 332.900 M168.778 334.300 L 167.400 335.800 168.900 334.422 C 170.296 333.138,170.584 332.800,170.278 332.800 C 170.212 332.800,169.537 333.475,168.778 334.300 M196.786 338.300 L 194.600 340.600 196.900 338.414 C 199.037 336.382,199.383 336.000,199.086 336.000 C 199.024 336.000,197.989 337.035,196.786 338.300 M163.978 339.500 L 162.600 341.000 164.100 339.622 C 165.496 338.338,165.784 338.000,165.478 338.000 C 165.412 338.000,164.737 338.675,163.978 339.500 M192.386 343.100 L 190.200 345.400 192.500 343.214 C 193.765 342.011,194.800 340.976,194.800 340.914 C 194.800 340.617,194.418 340.963,192.386 343.100 M159.200 344.600 C 158.228 345.590,157.523 346.400,157.633 346.400 C 157.743 346.400,158.628 345.590,159.600 344.600 C 160.572 343.610,161.277 342.800,161.167 342.800 C 161.057 342.800,160.172 343.610,159.200 344.600 M187.186 348.700 L 185.000 351.000 187.300 348.814 C 189.437 346.782,189.783 346.400,189.486 346.400 C 189.424 346.400,188.389 347.435,187.186 348.700 M154.585 349.700 L 152.600 351.800 154.700 349.815 C 155.855 348.723,156.800 347.778,156.800 347.715 C 156.800 347.417,156.429 347.749,154.585 349.700 M182.386 353.900 L 180.200 356.200 182.500 354.014 C 184.637 351.982,184.983 351.600,184.686 351.600 C 184.624 351.600,183.589 352.635,182.386 353.900 M149.200 355.400 C 148.228 356.390,147.523 357.200,147.633 357.200 C 147.743 357.200,148.628 356.390,149.600 355.400 C 150.572 354.410,151.277 353.600,151.167 353.600 C 151.057 353.600,150.172 354.410,149.200 355.400 M177.600 359.000 C 176.628 359.990,175.923 360.800,176.033 360.800 C 176.143 360.800,177.028 359.990,178.000 359.000 C 178.972 358.010,179.677 357.200,179.567 357.200 C 179.457 357.200,178.572 358.010,177.600 359.000 M144.585 360.500 L 142.600 362.600 144.700 360.615 C 145.855 359.523,146.800 358.578,146.800 358.515 C 146.800 358.217,146.429 358.549,144.585 360.500 M172.378 364.700 L 171.000 366.200 172.500 364.822 C 173.896 363.538,174.184 363.200,173.878 363.200 C 173.812 363.200,173.137 363.875,172.378 364.700 M139.785 365.700 L 137.800 367.800 139.900 365.815 C 141.055 364.723,142.000 363.778,142.000 363.715 C 142.000 363.417,141.629 363.749,139.785 365.700 M167.600 369.800 C 166.628 370.790,165.923 371.600,166.033 371.600 C 166.143 371.600,167.028 370.790,168.000 369.800 C 168.972 368.810,169.677 368.000,169.567 368.000 C 169.457 368.000,168.572 368.810,167.600 369.800 M135.385 370.500 L 133.400 372.600 135.500 370.615 C 136.655 369.523,137.600 368.578,137.600 368.515 C 137.600 368.217,137.229 368.549,135.385 370.500 M162.981 374.900 L 161.400 376.600 163.100 375.019 C 164.681 373.548,164.984 373.200,164.681 373.200 C 164.616 373.200,163.851 373.965,162.981 374.900 M130.185 376.100 L 128.200 378.200 130.300 376.215 C 131.455 375.123,132.400 374.178,132.400 374.115 C 132.400 373.817,132.029 374.149,130.185 376.100 M158.400 379.800 C 157.428 380.790,156.723 381.600,156.833 381.600 C 156.943 381.600,157.828 380.790,158.800 379.800 C 159.772 378.810,160.477 378.000,160.367 378.000 C 160.257 378.000,159.372 378.810,158.400 379.800 M129.000 382.800 C 130.306 384.120,131.465 385.200,131.575 385.200 C 131.685 385.200,130.706 384.120,129.400 382.800 C 128.094 381.480,126.935 380.400,126.825 380.400 C 126.715 380.400,127.694 381.480,129.000 382.800 M153.375 385.300 L 152.200 386.600 153.500 385.425 C 154.712 384.330,154.984 384.000,154.675 384.000 C 154.606 384.000,154.021 384.585,153.375 385.300 M134.200 387.600 C 135.283 388.700,136.260 389.600,136.370 389.600 C 136.480 389.600,135.683 388.700,134.600 387.600 C 133.517 386.500,132.540 385.600,132.430 385.600 C 132.320 385.600,133.117 386.500,134.200 387.600 M148.786 390.300 L 146.600 392.600 148.900 390.414 C 151.037 388.382,151.383 388.000,151.086 388.000 C 151.024 388.000,149.989 389.035,148.786 390.300 M139.200 392.200 C 140.395 393.410,141.463 394.400,141.573 394.400 C 141.683 394.400,140.795 393.410,139.600 392.200 C 138.405 390.990,137.337 390.000,137.227 390.000 C 137.117 390.000,138.005 390.990,139.200 392.200 " stroke="none" fill="#949494" fill-rule="evenodd"></path><path id="path3" d="M272.900 19.500 C 286.485 19.558,308.715 19.558,322.300 19.500 C 335.885 19.442,324.770 19.394,297.600 19.394 C 270.430 19.394,259.315 19.442,272.900 19.500 M19.781 32.100 L 18.200 33.800 19.900 32.219 C 21.481 30.748,21.784 30.400,21.481 30.400 C 21.416 30.400,20.651 31.165,19.781 32.100 M13.180 41.239 C 12.720 42.140,12.413 42.946,12.497 43.030 C 12.581 43.114,13.041 42.376,13.519 41.391 C 14.609 39.147,14.315 39.015,13.180 41.239 M199.100 42.300 C 226.215 42.357,270.585 42.357,297.700 42.300 C 324.815 42.243,302.630 42.197,248.400 42.197 C 194.170 42.197,171.985 42.243,199.100 42.300 M354.000 44.200 C 354.550 44.514,355.180 44.772,355.400 44.772 C 355.620 44.772,355.350 44.514,354.800 44.200 C 354.250 43.886,353.620 43.628,353.400 43.628 C 353.180 43.628,353.450 43.886,354.000 44.200 M360.200 48.400 C 361.283 49.500,362.260 50.400,362.370 50.400 C 362.480 50.400,361.683 49.500,360.600 48.400 C 359.517 47.300,358.540 46.400,358.430 46.400 C 358.320 46.400,359.117 47.300,360.200 48.400 M389.740 66.400 C 389.740 68.270,389.809 69.035,389.893 68.100 C 389.977 67.165,389.977 65.635,389.893 64.700 C 389.809 63.765,389.740 64.530,389.740 66.400 M366.928 78.800 C 366.928 80.230,367.001 80.815,367.089 80.100 C 367.178 79.385,367.178 78.215,367.089 77.500 C 367.001 76.785,366.928 77.370,366.928 78.800 M244.181 132.100 L 242.600 133.800 244.300 132.219 C 245.881 130.748,246.184 130.400,245.881 130.400 C 245.816 130.400,245.051 131.165,244.181 132.100 M147.600 132.600 C 146.628 133.590,145.923 134.400,146.033 134.400 C 146.143 134.400,147.028 133.590,148.000 132.600 C 148.972 131.610,149.677 130.800,149.567 130.800 C 149.457 130.800,148.572 131.610,147.600 132.600 M188.800 131.400 C 188.250 131.714,187.980 131.972,188.200 131.972 C 188.420 131.972,189.050 131.714,189.600 131.400 C 190.150 131.086,190.420 130.828,190.200 130.828 C 189.980 130.828,189.350 131.086,188.800 131.400 M236.585 139.700 L 234.600 141.800 236.700 139.815 C 238.651 137.971,238.983 137.600,238.685 137.600 C 238.622 137.600,237.677 138.545,236.585 139.700 M140.181 140.100 L 138.600 141.800 140.300 140.219 C 141.881 138.748,142.184 138.400,141.881 138.400 C 141.816 138.400,141.051 139.165,140.181 140.100 M268.788 142.700 L 266.200 145.400 268.900 142.812 C 270.385 141.388,271.600 140.173,271.600 140.112 C 271.600 139.817,271.193 140.192,268.788 142.700 M156.934 174.800 L 157.000 175.800 168.376 175.906 C 178.489 176.001,179.843 176.090,180.576 176.706 C 181.398 177.398,181.398 177.398,180.638 176.500 C 179.881 175.606,179.802 175.600,168.566 175.600 L 157.256 175.600 157.062 174.700 C 156.892 173.907,156.877 173.919,156.934 174.800 M253.461 175.700 C 253.564 175.865,258.620 176.000,264.698 176.000 C 275.587 176.000,275.763 176.013,276.774 176.900 L 277.800 177.800 276.841 176.712 L 275.883 175.624 264.579 175.512 C 258.362 175.450,253.359 175.535,253.461 175.700 M366.920 188.400 C 366.920 189.610,366.995 190.105,367.087 189.500 C 367.178 188.895,367.178 187.905,367.087 187.300 C 366.995 186.695,366.920 187.190,366.920 188.400 M281.701 189.800 C 281.705 190.680,281.787 190.993,281.883 190.495 C 281.979 189.998,281.975 189.278,281.875 188.895 C 281.775 188.513,281.696 188.920,281.701 189.800 M212.501 193.800 C 212.505 194.680,212.587 194.993,212.683 194.495 C 212.779 193.998,212.775 193.278,212.675 192.895 C 212.575 192.513,212.496 192.920,212.501 193.800 M116.154 198.400 C 116.154 201.150,116.218 202.275,116.296 200.900 C 116.374 199.525,116.374 197.275,116.296 195.900 C 116.218 194.525,116.154 195.650,116.154 198.400 M366.992 229.800 C 366.992 249.600,367.040 257.641,367.100 247.670 C 367.159 237.698,367.159 221.498,367.100 211.670 C 367.040 201.841,366.992 210.000,366.992 229.800 M9.792 231.200 C 9.792 251.550,9.840 259.875,9.900 249.700 C 9.959 239.525,9.959 222.875,9.900 212.700 C 9.840 202.525,9.792 210.850,9.792 231.200 M281.709 196.800 C 281.709 197.790,281.787 198.195,281.882 197.700 C 281.978 197.205,281.978 196.395,281.882 195.900 C 281.787 195.405,281.709 195.810,281.709 196.800 M185.293 197.600 C 185.293 198.370,185.375 198.685,185.476 198.300 C 185.576 197.915,185.576 197.285,185.476 196.900 C 185.375 196.515,185.293 196.830,185.293 197.600 M389.790 237.200 C 389.790 253.810,389.839 260.605,389.900 252.300 C 389.960 243.995,389.960 230.405,389.900 222.100 C 389.839 213.795,389.790 220.590,389.790 237.200 M32.590 237.200 C 32.590 253.590,32.639 260.295,32.700 252.100 C 32.760 243.905,32.760 230.495,32.700 222.300 C 32.639 214.105,32.590 220.810,32.590 237.200 M181.000 212.400 C 180.659 213.060,180.469 213.600,180.579 213.600 C 180.689 213.600,181.059 213.060,181.400 212.400 C 181.741 211.740,181.931 211.200,181.821 211.200 C 181.711 211.200,181.341 211.740,181.000 212.400 M271.200 220.600 C 270.228 221.590,269.523 222.400,269.633 222.400 C 269.743 222.400,270.628 221.590,271.600 220.600 C 272.572 219.610,273.277 218.800,273.167 218.800 C 273.057 218.800,272.172 219.610,271.200 220.600 M122.400 219.725 C 122.400 219.794,122.985 220.379,123.700 221.025 L 125.000 222.200 123.825 220.900 C 122.730 219.688,122.400 219.416,122.400 219.725 M147.113 231.095 C 148.276 231.176,150.076 231.176,151.113 231.093 C 152.151 231.011,151.200 230.945,149.000 230.946 C 146.800 230.947,145.951 231.014,147.113 231.095 M242.515 231.096 C 243.788 231.176,245.768 231.175,246.915 231.094 C 248.062 231.014,247.020 230.949,244.600 230.950 C 242.180 230.951,241.242 231.016,242.515 231.096 M37.600 278.925 C 37.600 278.994,38.185 279.579,38.900 280.225 L 40.200 281.400 39.025 280.100 C 37.930 278.888,37.600 278.616,37.600 278.925 M360.400 280.600 C 359.428 281.590,358.723 282.400,358.833 282.400 C 358.943 282.400,359.828 281.590,360.800 280.600 C 361.772 279.610,362.477 278.800,362.367 278.800 C 362.257 278.800,361.372 279.610,360.400 280.600 M103.194 287.099 L 150.787 287.203 150.904 298.302 L 151.020 309.400 151.010 298.200 L 151.000 287.000 103.300 286.998 L 55.600 286.995 103.194 287.099 M296.900 287.100 C 306.085 287.160,321.115 287.160,330.300 287.100 C 339.485 287.040,331.970 286.991,313.600 286.991 C 295.230 286.991,287.715 287.040,296.900 287.100 M211.178 288.700 L 209.800 290.200 211.300 288.822 C 212.696 287.538,212.984 287.200,212.678 287.200 C 212.612 287.200,211.937 287.875,211.178 288.700 M207.186 293.100 L 205.000 295.400 207.300 293.214 C 209.437 291.182,209.783 290.800,209.486 290.800 C 209.424 290.800,208.389 291.835,207.186 293.100 M202.185 298.500 L 200.200 300.600 202.300 298.615 C 203.455 297.523,204.400 296.578,204.400 296.515 C 204.400 296.217,204.029 296.549,202.185 298.500 M197.600 303.400 C 196.628 304.390,195.923 305.200,196.033 305.200 C 196.143 305.200,197.028 304.390,198.000 303.400 C 198.972 302.410,199.677 301.600,199.567 301.600 C 199.457 301.600,198.572 302.410,197.600 303.400 M366.300 304.229 C 364.805 305.040,364.896 305.378,366.400 304.600 C 367.060 304.259,367.600 303.894,367.600 303.790 C 367.600 303.532,367.557 303.547,366.300 304.229 M192.386 309.100 L 190.200 311.400 192.500 309.214 C 194.637 307.182,194.983 306.800,194.686 306.800 C 194.624 306.800,193.589 307.835,192.386 309.100 M286.330 309.900 C 297.402 309.959,315.402 309.959,326.330 309.900 C 337.259 309.841,328.200 309.792,306.200 309.792 C 284.200 309.792,275.259 309.841,286.330 309.900 M221.178 311.500 L 219.800 313.000 221.300 311.622 C 222.125 310.863,222.800 310.188,222.800 310.122 C 222.800 309.816,222.462 310.104,221.178 311.500 M187.578 314.300 L 186.200 315.800 187.700 314.422 C 189.096 313.138,189.384 312.800,189.078 312.800 C 189.012 312.800,188.337 313.475,187.578 314.300 M215.785 317.300 L 213.800 319.400 215.900 317.415 C 217.851 315.571,218.183 315.200,217.885 315.200 C 217.822 315.200,216.877 316.145,215.785 317.300 M182.581 319.700 L 181.000 321.400 182.700 319.819 C 184.281 318.348,184.584 318.000,184.281 318.000 C 184.216 318.000,183.451 318.765,182.581 319.700 M211.200 322.200 C 210.228 323.190,209.523 324.000,209.633 324.000 C 209.743 324.000,210.628 323.190,211.600 322.200 C 212.572 321.210,213.277 320.400,213.167 320.400 C 213.057 320.400,212.172 321.210,211.200 322.200 M177.978 324.700 L 176.600 326.200 178.100 324.822 C 179.496 323.538,179.784 323.200,179.478 323.200 C 179.412 323.200,178.737 323.875,177.978 324.700 M206.581 327.300 L 205.000 329.000 206.700 327.419 C 208.281 325.948,208.584 325.600,208.281 325.600 C 208.216 325.600,207.451 326.365,206.581 327.300 M173.200 329.800 C 172.228 330.790,171.523 331.600,171.633 331.600 C 171.743 331.600,172.628 330.790,173.600 329.800 C 174.572 328.810,175.277 328.000,175.167 328.000 C 175.057 328.000,174.172 328.810,173.200 329.800 M201.600 332.600 C 200.628 333.590,199.923 334.400,200.033 334.400 C 200.143 334.400,201.028 333.590,202.000 332.600 C 202.972 331.610,203.677 330.800,203.567 330.800 C 203.457 330.800,202.572 331.610,201.600 332.600 M168.800 334.600 C 167.828 335.590,167.123 336.400,167.233 336.400 C 167.343 336.400,168.228 335.590,169.200 334.600 C 170.172 333.610,170.877 332.800,170.767 332.800 C 170.657 332.800,169.772 333.610,168.800 334.600 M196.800 337.800 C 195.828 338.790,195.123 339.600,195.233 339.600 C 195.343 339.600,196.228 338.790,197.200 337.800 C 198.172 336.810,198.877 336.000,198.767 336.000 C 198.657 336.000,197.772 336.810,196.800 337.800 M164.000 339.800 C 163.028 340.790,162.323 341.600,162.433 341.600 C 162.543 341.600,163.428 340.790,164.400 339.800 C 165.372 338.810,166.077 338.000,165.967 338.000 C 165.857 338.000,164.972 338.810,164.000 339.800 M192.000 343.000 C 191.028 343.990,190.323 344.800,190.433 344.800 C 190.543 344.800,191.428 343.990,192.400 343.000 C 193.372 342.010,194.077 341.200,193.967 341.200 C 193.857 341.200,192.972 342.010,192.000 343.000 M159.200 345.000 C 158.228 345.990,157.523 346.800,157.633 346.800 C 157.743 346.800,158.628 345.990,159.600 345.000 C 160.572 344.010,161.277 343.200,161.167 343.200 C 161.057 343.200,160.172 344.010,159.200 345.000 M187.381 348.100 L 185.800 349.800 187.500 348.219 C 189.081 346.748,189.384 346.400,189.081 346.400 C 189.016 346.400,188.251 347.165,187.381 348.100 M154.386 350.300 L 152.200 352.600 154.500 350.414 C 156.637 348.382,156.983 348.000,156.686 348.000 C 156.624 348.000,155.589 349.035,154.386 350.300 M182.185 353.700 L 180.200 355.800 182.300 353.815 C 183.455 352.723,184.400 351.778,184.400 351.715 C 184.400 351.417,184.029 351.749,182.185 353.700 M149.586 355.500 L 147.400 357.800 149.700 355.614 C 151.837 353.582,152.183 353.200,151.886 353.200 C 151.824 353.200,150.789 354.235,149.586 355.500 M177.586 358.700 L 175.400 361.000 177.700 358.814 C 179.837 356.782,180.183 356.400,179.886 356.400 C 179.824 356.400,178.789 357.435,177.586 358.700 M144.800 360.600 C 143.828 361.590,143.123 362.400,143.233 362.400 C 143.343 362.400,144.228 361.590,145.200 360.600 C 146.172 359.610,146.877 358.800,146.767 358.800 C 146.657 358.800,145.772 359.610,144.800 360.600 M172.386 364.300 L 170.200 366.600 172.500 364.414 C 174.637 362.382,174.983 362.000,174.686 362.000 C 174.624 362.000,173.589 363.035,172.386 364.300 M139.986 365.900 L 137.800 368.200 140.100 366.014 C 141.365 364.811,142.400 363.776,142.400 363.714 C 142.400 363.417,142.018 363.763,139.986 365.900 M167.586 369.500 L 165.400 371.800 167.700 369.614 C 169.837 367.582,170.183 367.200,169.886 367.200 C 169.824 367.200,168.789 368.235,167.586 369.500 M134.985 371.300 L 133.000 373.400 135.100 371.415 C 136.255 370.323,137.200 369.378,137.200 369.315 C 137.200 369.017,136.829 369.349,134.985 371.300 M162.985 374.500 L 161.000 376.600 163.100 374.615 C 164.255 373.523,165.200 372.578,165.200 372.515 C 165.200 372.217,164.829 372.549,162.985 374.500 M130.400 376.200 C 129.428 377.190,128.723 378.000,128.833 378.000 C 128.943 378.000,129.828 377.190,130.800 376.200 C 131.772 375.210,132.477 374.400,132.367 374.400 C 132.257 374.400,131.372 375.210,130.400 376.200 M157.785 380.100 L 155.800 382.200 157.900 380.215 C 159.055 379.123,160.000 378.178,160.000 378.115 C 160.000 377.817,159.629 378.149,157.785 380.100 M129.583 382.900 C 131.241 384.666,131.600 384.984,131.600 384.683 C 131.600 384.619,130.745 383.764,129.700 382.783 L 127.800 381.000 129.583 382.900 M152.800 385.400 C 151.828 386.390,151.123 387.200,151.233 387.200 C 151.343 387.200,152.228 386.390,153.200 385.400 C 154.172 384.410,154.877 383.600,154.767 383.600 C 154.657 383.600,153.772 384.410,152.800 385.400 M134.383 387.300 C 136.041 389.066,136.400 389.384,136.400 389.083 C 136.400 389.019,135.545 388.164,134.500 387.183 L 132.600 385.400 134.383 387.300 M148.185 390.500 L 146.200 392.600 148.300 390.615 C 149.455 389.523,150.400 388.578,150.400 388.515 C 150.400 388.217,150.029 388.549,148.185 390.500 M139.583 392.100 C 141.241 393.866,141.600 394.184,141.600 393.883 C 141.600 393.819,140.745 392.964,139.700 391.983 L 137.800 390.200 139.583 392.100 M144.278 394.613 C 143.660 395.156,143.314 395.600,143.508 395.600 C 143.702 395.600,144.283 395.150,144.800 394.600 C 145.995 393.328,145.731 393.334,144.278 394.613 " stroke="none" fill="#6c6c6c" fill-rule="evenodd"></path><path id="path4" d="M149.900 19.500 C 167.995 19.558,197.605 19.558,215.700 19.500 C 233.795 19.442,218.990 19.395,182.800 19.395 C 146.610 19.395,131.805 19.442,149.900 19.500 M240.185 135.700 L 238.200 137.800 240.300 135.815 C 242.251 133.971,242.583 133.600,242.285 133.600 C 242.222 133.600,241.277 134.545,240.185 135.700 M143.781 136.100 L 142.200 137.800 143.900 136.219 C 145.481 134.748,145.784 134.400,145.481 134.400 C 145.416 134.400,144.651 135.165,143.781 136.100 M366.987 164.600 C 366.987 176.700,367.037 181.708,367.100 175.728 C 367.162 169.749,367.162 159.849,367.100 153.728 C 367.038 147.608,366.987 152.500,366.987 164.600 M32.589 180.000 C 32.589 195.290,32.639 201.545,32.700 193.900 C 32.761 186.255,32.761 173.745,32.700 166.100 C 32.639 158.455,32.589 164.710,32.589 180.000 M366.914 192.200 C 366.917 193.300,366.995 193.703,367.087 193.095 C 367.179 192.486,367.177 191.586,367.082 191.095 C 366.987 190.603,366.911 191.100,366.914 192.200 M185.720 193.200 C 185.720 194.410,185.795 194.905,185.887 194.300 C 185.978 193.695,185.978 192.705,185.887 192.100 C 185.795 191.495,185.720 191.990,185.720 193.200 M246.272 287.100 C 252.471 287.162,262.731 287.162,269.072 287.100 C 275.412 287.038,270.340 286.987,257.800 286.987 C 245.260 286.987,240.072 287.038,246.272 287.100 M102.400 309.600 L 53.800 309.805 102.276 309.902 C 134.268 309.967,150.837 309.864,151.000 309.600 C 151.136 309.380,151.192 309.244,151.124 309.298 C 151.056 309.351,129.130 309.487,102.400 309.600 " stroke="none" fill="#7c7c7c" fill-rule="evenodd"></path></g></svg>
